<svg width="152" height="61" viewBox="0 0 152 61" fill="none" xmlns="http://www.w3.org/2000/svg">
<path fill-rule="evenodd" clip-rule="evenodd" d="M72.2805 22.3248L72.9434 20.7568L73.2748 19.8772C73.2748 19.8772 73.4589 19.4947 73.6062 19.2653C73.6357 19.2194 73.6578 19.1827 73.677 19.1509C73.7536 19.0236 73.783 18.9746 74.0482 18.7299C74.3384 18.4619 74.3463 18.458 74.4921 18.3841C74.5128 18.3736 74.5363 18.3617 74.5638 18.3474C74.7847 18.2327 74.932 18.1945 75.2266 18.118L75.2266 18.118C75.5213 18.0415 75.5581 18.0415 75.5581 18.0415C75.5581 18.0415 75.6692 18.0107 75.7422 18.0032C75.8138 17.996 75.9264 18.0032 75.9264 18.0032V39.9168L68.7819 39.0372L63 35.4041C63.2578 34.4862 63.6261 34.1038 63.6261 34.1038L64.5099 33.0712L65.3201 32.1916L67.0142 30.4324L68.4504 28.7115L69.7762 27.0287L71.102 24.8871L72.2805 22.3248ZM79.6402 22.3349L78.9717 20.7644L78.6374 19.8834C78.6374 19.8834 78.4517 19.5004 78.3031 19.2705C78.2734 19.2246 78.2511 19.1878 78.2318 19.1559C78.1546 19.0284 78.1249 18.9794 77.8574 18.7343C77.5647 18.4659 77.5568 18.4619 77.4097 18.3879C77.3888 18.3774 77.3651 18.3655 77.3374 18.3512C77.1146 18.2363 76.966 18.198 76.6689 18.1214L76.6689 18.1214C76.3718 18.0448 76.3346 18.0448 76.3346 18.0448C76.3346 18.0448 76.2225 18.0139 76.1489 18.0065C76.0767 17.9992 75.9632 18.0065 75.9632 18.0065V39.9551L83.1687 39.0741L89 35.4351C88.74 34.5158 88.3686 34.1328 88.3686 34.1328L87.4772 33.0985L86.6601 32.2175L84.9515 30.4555L83.503 28.7318L82.1659 27.0464L80.8288 24.9013L79.6402 22.3349Z" fill="#EAB354"/>
<path d="M72.9434 20.7568L73.4039 20.9515L73.4078 20.9424L73.4112 20.9331L72.9434 20.7568ZM72.2805 22.3248L72.7347 22.5337L72.738 22.5266L72.741 22.5195L72.2805 22.3248ZM73.2748 19.8772L72.8243 19.6603L72.8147 19.6802L72.8069 19.7009L73.2748 19.8772ZM73.6062 19.2653L74.027 19.5354L74.027 19.5354L73.6062 19.2653ZM73.677 19.1509L73.2486 18.893L73.2486 18.893L73.677 19.1509ZM74.0482 18.7299L74.3873 19.0973L74.3873 19.0973L74.0482 18.7299ZM74.4921 18.3841L74.7181 18.8301L74.7181 18.8301L74.4921 18.3841ZM74.5638 18.3474L74.7942 18.7912L74.7942 18.7912L74.5638 18.3474ZM75.2266 18.118L75.3523 18.602L75.3565 18.6008L75.2266 18.118ZM75.2266 18.118L75.101 17.634L75.0967 17.6351L75.2266 18.118ZM75.5581 18.0415V18.5415H75.6261L75.6917 18.5233L75.5581 18.0415ZM75.7422 18.0032L75.6916 17.5058L75.6916 17.5058L75.7422 18.0032ZM75.9264 18.0032H76.4264V17.5346L75.9587 17.5043L75.9264 18.0032ZM75.9264 39.9168L75.8653 40.4131L76.4264 40.4822V39.9168H75.9264ZM68.7819 39.0372L68.5159 39.4606L68.6102 39.5199L68.7208 39.5335L68.7819 39.0372ZM63 35.4041L62.5186 35.2689L62.4176 35.6286L62.734 35.8274L63 35.4041ZM63.6261 34.1038L63.9862 34.4506L63.9964 34.4401L64.0059 34.4289L63.6261 34.1038ZM64.5099 33.0712L64.1422 32.7325L64.136 32.7392L64.1301 32.7461L64.5099 33.0712ZM65.3201 32.1916L64.9599 31.8447L64.9524 31.8529L65.3201 32.1916ZM67.0142 30.4324L67.3743 30.7792L67.3867 30.7664L67.3981 30.7528L67.0142 30.4324ZM68.4504 28.7115L68.8345 29.032L68.8432 29.0209L68.4504 28.7115ZM69.7762 27.0287L70.169 27.3382L70.1865 27.316L70.2014 27.2919L69.7762 27.0287ZM71.102 24.8871L71.5271 25.1503L71.5434 25.124L71.5563 25.096L71.102 24.8871ZM78.9717 20.7644L78.5042 20.9418L78.5077 20.9511L78.5116 20.9603L78.9717 20.7644ZM79.6402 22.3349L79.1802 22.5308L79.1833 22.5379L79.1865 22.545L79.6402 22.3349ZM78.6374 19.8834L79.1049 19.706L79.097 19.6853L79.0873 19.6653L78.6374 19.8834ZM78.3031 19.2705L77.8832 19.542L77.8832 19.542L78.3031 19.2705ZM78.2318 19.1559L78.6594 18.8968L78.6594 18.8968L78.2318 19.1559ZM77.8574 18.7343L78.1953 18.3657L78.1953 18.3657L77.8574 18.7343ZM77.4097 18.3879L77.6344 17.9413L77.6344 17.9413L77.4097 18.3879ZM77.3374 18.3512L77.5666 17.9068L77.5666 17.9068L77.3374 18.3512ZM76.6689 18.1214L76.5378 18.6039L76.5441 18.6056L76.6689 18.1214ZM76.6689 18.1214L76.8 17.6388L76.7937 17.6372L76.6689 18.1214ZM76.3346 18.0448L76.2019 18.5268L76.267 18.5448H76.3346V18.0448ZM76.1489 18.0065L76.1992 17.509L76.1992 17.509L76.1489 18.0065ZM75.9632 18.0065L75.9311 17.5075L75.4632 17.5376V18.0065H75.9632ZM75.9632 39.9551H75.4632V40.5199L76.0239 40.4514L75.9632 39.9551ZM83.1687 39.0741L83.2294 39.5704L83.3394 39.5569L83.4334 39.4982L83.1687 39.0741ZM89 35.4351L89.2647 35.8593L89.5834 35.6605L89.4811 35.299L89 35.4351ZM88.3686 34.1328L87.9899 34.4592L87.9994 34.4703L88.0096 34.4808L88.3686 34.1328ZM87.4772 33.0985L87.8559 32.7721L87.85 32.7652L87.8438 32.7585L87.4772 33.0985ZM86.6601 32.2175L87.0268 31.8774L87.019 31.8695L86.6601 32.2175ZM84.9515 30.4555L84.5688 30.7772L84.5802 30.7908L84.5926 30.8036L84.9515 30.4555ZM83.503 28.7318L83.1111 29.0427L83.1202 29.0535L83.503 28.7318ZM82.1659 27.0464L81.7416 27.3109L81.7566 27.3349L81.7742 27.3571L82.1659 27.0464ZM80.8288 24.9013L80.3751 25.1114L80.3881 25.1395L80.4045 25.1658L80.8288 24.9013ZM72.4828 20.5621L71.8199 22.1301L72.741 22.5195L73.4039 20.9515L72.4828 20.5621ZM72.8069 19.7009L72.4755 20.5805L73.4112 20.9331L73.7427 20.0535L72.8069 19.7009ZM73.1855 18.9952C73.0988 19.1303 73.0072 19.3002 72.9414 19.4271C72.9075 19.4925 72.8785 19.5502 72.858 19.5916C72.8477 19.6124 72.8394 19.6292 72.8337 19.641C72.8308 19.6469 72.8285 19.6515 72.827 19.6548C72.8262 19.6564 72.8256 19.6577 72.8251 19.6586C72.8249 19.6591 72.8247 19.6594 72.8246 19.6597C72.8245 19.6598 72.8244 19.66 72.8244 19.6601C72.8244 19.6601 72.8244 19.6601 72.8243 19.6602C72.8243 19.6602 72.8243 19.6602 72.8243 19.6602C72.8243 19.6602 72.8243 19.6603 73.2748 19.8772C73.7253 20.0941 73.7253 20.0941 73.7253 20.0941C73.7253 20.0941 73.7253 20.0941 73.7253 20.0941C73.7253 20.0941 73.7253 20.0942 73.7253 20.0942C73.7253 20.0942 73.7253 20.0941 73.7253 20.0941C73.7253 20.094 73.7254 20.0938 73.7256 20.0935C73.7258 20.093 73.7263 20.0921 73.7269 20.0909C73.728 20.0884 73.7299 20.0846 73.7323 20.0796C73.7372 20.0696 73.7445 20.0547 73.7538 20.036C73.7724 19.9986 73.7986 19.9464 73.8292 19.8874C73.8923 19.7657 73.9664 19.6298 74.027 19.5354L73.1855 18.9952ZM73.2486 18.893C73.2296 18.9245 73.2107 18.9559 73.1855 18.9952L74.027 19.5354C74.0607 19.4829 74.086 19.4408 74.1054 19.4087L73.2486 18.893ZM73.709 18.3625C73.5751 18.4861 73.4824 18.5768 73.4114 18.66C73.3323 18.7528 73.2876 18.8281 73.2486 18.893L74.1054 19.4087C74.1429 19.3464 74.1513 19.3335 74.1723 19.3088C74.2015 19.2746 74.2561 19.2184 74.3873 19.0973L73.709 18.3625ZM74.2661 17.9381C74.1925 17.9754 74.1159 18.0132 74.0182 18.0888C73.9404 18.1491 73.8469 18.2352 73.709 18.3625L74.3873 19.0973C74.5397 18.9566 74.5953 18.9068 74.6304 18.8796C74.6456 18.8678 74.6459 18.8667 74.7181 18.8301L74.2661 17.9381ZM74.3333 17.9037C74.3083 17.9167 74.2869 17.9276 74.2661 17.9381L74.7181 18.8301C74.7388 18.8196 74.7643 18.8067 74.7942 18.7912L74.3333 17.9037ZM75.101 17.634C74.8072 17.7103 74.6099 17.7601 74.3333 17.9037L74.7942 18.7912C74.9596 18.7053 75.0568 18.6786 75.3523 18.6019L75.101 17.634ZM75.0967 17.6351L75.0967 17.6352L75.3565 18.6008L75.3566 18.6008L75.0967 17.6351ZM75.5581 18.0415C75.5581 17.5415 75.5576 17.5415 75.5571 17.5415C75.5569 17.5415 75.5564 17.5415 75.5561 17.5415C75.5554 17.5415 75.5548 17.5415 75.5541 17.5415C75.5528 17.5415 75.5516 17.5415 75.5503 17.5415C75.5478 17.5416 75.5454 17.5416 75.5431 17.5417C75.5386 17.5418 75.5343 17.542 75.5303 17.5422C75.5225 17.5427 75.5153 17.5432 75.5089 17.5438C75.4965 17.545 75.4849 17.5465 75.4744 17.5481C75.4537 17.5512 75.4299 17.5555 75.4012 17.5615C75.3438 17.5734 75.2521 17.5948 75.101 17.634L75.3523 18.6019C75.4959 18.5647 75.5699 18.5478 75.6045 18.5406C75.6219 18.537 75.6257 18.5366 75.6211 18.5373C75.6187 18.5376 75.6122 18.5385 75.6029 18.5394C75.5982 18.5399 75.5921 18.5404 75.5849 18.5408C75.5813 18.541 75.5772 18.5411 75.5728 18.5413C75.5706 18.5413 75.5683 18.5414 75.5658 18.5414C75.5646 18.5414 75.5633 18.5415 75.562 18.5415C75.5614 18.5415 75.5608 18.5415 75.5601 18.5415C75.5598 18.5415 75.5593 18.5415 75.5591 18.5415C75.5586 18.5415 75.5581 18.5415 75.5581 18.0415ZM75.6916 17.5058C75.6216 17.5129 75.5496 17.5288 75.5089 17.5383C75.4856 17.5437 75.4654 17.5488 75.4508 17.5526C75.4435 17.5545 75.4374 17.5561 75.433 17.5574C75.4307 17.558 75.4289 17.5585 75.4275 17.5588C75.4268 17.559 75.4262 17.5592 75.4257 17.5593C75.4254 17.5594 75.4252 17.5595 75.425 17.5595C75.4249 17.5595 75.4248 17.5596 75.4247 17.5596C75.4247 17.5596 75.4247 17.5596 75.4246 17.5596C75.4246 17.5596 75.4246 17.5596 75.4246 17.5596C75.4245 17.5596 75.4245 17.5597 75.5581 18.0415C75.6917 18.5233 75.6916 18.5233 75.6916 18.5233C75.6916 18.5233 75.6916 18.5233 75.6916 18.5233C75.6915 18.5233 75.6915 18.5234 75.6915 18.5234C75.6914 18.5234 75.6914 18.5234 75.6913 18.5234C75.6913 18.5234 75.6912 18.5234 75.6912 18.5234C75.6911 18.5235 75.6911 18.5235 75.6912 18.5234C75.6915 18.5234 75.6921 18.5232 75.6931 18.5229C75.695 18.5224 75.6982 18.5216 75.7024 18.5205C75.7109 18.5182 75.723 18.5152 75.7366 18.512C75.7505 18.5088 75.7641 18.5058 75.7761 18.5035C75.7892 18.5011 75.7944 18.5005 75.7929 18.5007L75.6916 17.5058ZM75.9264 18.0032C75.9587 17.5043 75.9586 17.5043 75.9586 17.5043C75.9586 17.5043 75.9586 17.5043 75.9585 17.5043C75.9585 17.5043 75.9585 17.5043 75.9584 17.5043C75.9583 17.5043 75.9583 17.5043 75.9582 17.5043C75.958 17.5042 75.9577 17.5042 75.9575 17.5042C75.957 17.5042 75.9564 17.5041 75.9557 17.5041C75.9542 17.504 75.9523 17.5039 75.9501 17.5038C75.9456 17.5035 75.9394 17.5032 75.932 17.5028C75.9173 17.5021 75.8969 17.5012 75.8734 17.5007C75.8325 17.4997 75.7603 17.4988 75.6916 17.5058L75.7929 18.5007C75.7914 18.5008 75.7965 18.5003 75.8095 18.5001C75.8213 18.4999 75.835 18.5 75.8489 18.5004C75.8625 18.5007 75.8747 18.5012 75.8833 18.5016C75.8875 18.5018 75.8908 18.502 75.8927 18.5021C75.8936 18.5022 75.8943 18.5022 75.8945 18.5022C75.8946 18.5022 75.8947 18.5022 75.8946 18.5022C75.8945 18.5022 75.8945 18.5022 75.8944 18.5022C75.8944 18.5022 75.8943 18.5022 75.8943 18.5022C75.8942 18.5022 75.8942 18.5022 75.8942 18.5022C75.8941 18.5022 75.8941 18.5022 75.8941 18.5022C75.8941 18.5022 75.8941 18.5022 75.9264 18.0032ZM76.4264 39.9168V18.0032H75.4264V39.9168H76.4264ZM68.7208 39.5335L75.8653 40.4131L75.9875 39.4206L68.843 38.541L68.7208 39.5335ZM62.734 35.8274L68.5159 39.4606L69.0479 38.6139L63.266 34.9807L62.734 35.8274ZM63.6261 34.1038C63.2659 33.757 63.2658 33.7571 63.2656 33.7573C63.2656 33.7573 63.2654 33.7575 63.2653 33.7576C63.2651 33.7578 63.2649 33.758 63.2647 33.7583C63.2643 33.7587 63.2638 33.7592 63.2634 33.7597C63.2624 33.7607 63.2614 33.7618 63.2603 33.763C63.258 33.7653 63.2554 33.7681 63.2525 33.7713C63.2467 33.7777 63.2396 33.7857 63.2313 33.7953C63.2146 33.8146 63.1932 33.8405 63.168 33.8733C63.1176 33.939 63.0521 34.0322 62.9793 34.1554C62.8335 34.4021 62.6596 34.7672 62.5186 35.2689L63.4814 35.5393C63.5983 35.1232 63.7374 34.8381 63.8402 34.6641C63.8917 34.577 63.9344 34.5172 63.961 34.4825C63.9744 34.4651 63.9838 34.4539 63.9883 34.4487C63.9905 34.4461 63.9915 34.445 63.9912 34.4453C63.9911 34.4455 63.9906 34.446 63.9898 34.4469C63.9894 34.4473 63.9889 34.4479 63.9883 34.4485C63.988 34.4488 63.9877 34.4491 63.9873 34.4495C63.9872 34.4497 63.987 34.4499 63.9868 34.45C63.9867 34.4501 63.9866 34.4503 63.9865 34.4503C63.9864 34.4505 63.9862 34.4506 63.6261 34.1038ZM64.1301 32.7461L63.2462 33.7787L64.0059 34.4289L64.8898 33.3964L64.1301 32.7461ZM64.9524 31.8529L64.1422 32.7325L64.8777 33.41L65.6879 32.5304L64.9524 31.8529ZM66.654 30.0856L64.96 31.8448L65.6803 32.5384L67.3743 30.7792L66.654 30.0856ZM68.0666 28.3911L66.6303 30.112L67.3981 30.7528L68.8343 29.0318L68.0666 28.3911ZM69.3835 26.7193L68.0577 28.402L68.8432 29.0209L70.169 27.3382L69.3835 26.7193ZM70.6769 24.6239L69.3511 26.7656L70.2014 27.2919L71.5271 25.1503L70.6769 24.6239ZM71.8262 22.1158L70.6477 24.6782L71.5563 25.096L72.7347 22.5337L71.8262 22.1158ZM78.5116 20.9603L79.1802 22.5308L80.1003 22.1391L79.4317 20.5686L78.5116 20.9603ZM78.1699 20.0608L78.5042 20.9418L79.4392 20.587L79.1049 19.706L78.1699 20.0608ZM77.8832 19.542C77.9443 19.6365 78.0191 19.7727 78.0828 19.8946C78.1136 19.9536 78.1401 20.0059 78.1588 20.0434C78.1681 20.0621 78.1755 20.077 78.1804 20.087C78.1829 20.0921 78.1847 20.0959 78.1859 20.0983C78.1865 20.0996 78.187 20.1005 78.1872 20.101C78.1874 20.1013 78.1875 20.1014 78.1875 20.1015C78.1875 20.1016 78.1875 20.1016 78.1875 20.1016C78.1875 20.1016 78.1875 20.1016 78.1875 20.1016C78.1875 20.1016 78.1875 20.1016 78.1875 20.1016C78.1875 20.1016 78.1875 20.1015 78.6374 19.8834C79.0873 19.6653 79.0873 19.6653 79.0873 19.6652C79.0873 19.6652 79.0873 19.6652 79.0873 19.6652C79.0873 19.6652 79.0872 19.6651 79.0872 19.6651C79.0872 19.665 79.0871 19.6649 79.0871 19.6647C79.0869 19.6644 79.0867 19.6641 79.0865 19.6636C79.0861 19.6627 79.0854 19.6614 79.0846 19.6598C79.083 19.6565 79.0808 19.6519 79.0779 19.646C79.0721 19.6342 79.0638 19.6173 79.0534 19.5965C79.0326 19.555 79.0034 19.4972 78.9692 19.4317C78.9029 19.3046 78.8105 19.1344 78.723 18.9991L77.8832 19.542ZM77.8042 19.4151C77.8237 19.4473 77.8493 19.4894 77.8832 19.542L78.723 18.9991C78.6976 18.9597 78.6785 18.9283 78.6594 18.8968L77.8042 19.4151ZM77.5196 19.1028C77.6519 19.2242 77.707 19.2805 77.7366 19.3149C77.7579 19.3397 77.7664 19.3527 77.8042 19.4151L78.6594 18.8968C78.62 18.8317 78.575 18.7564 78.4953 18.6635C78.4238 18.5803 78.3304 18.4895 78.1953 18.3657L77.5196 19.1028ZM77.185 18.8346C77.2578 18.8712 77.2585 18.8725 77.2742 18.8846C77.3098 18.912 77.3659 18.962 77.5196 19.1028L78.1953 18.3657C78.0562 18.2382 77.962 18.1521 77.8837 18.0918C77.7855 18.0163 77.7087 17.9786 77.6344 17.9413L77.185 18.8346ZM77.1083 18.7956C77.1384 18.8112 77.1641 18.8241 77.185 18.8346L77.6344 17.9413C77.6135 17.9308 77.5918 17.9198 77.5666 17.9068L77.1083 18.7956ZM76.5441 18.6056C76.8421 18.6824 76.9408 18.7093 77.1083 18.7956L77.5666 17.9068C77.2884 17.7634 77.09 17.7136 76.7937 17.6372L76.5441 18.6056ZM76.5378 18.6039L76.5378 18.6039L76.8 17.6389L76.8 17.6389L76.5378 18.6039ZM76.3346 18.0448C76.3346 18.5448 76.3341 18.5448 76.3336 18.5448C76.3334 18.5448 76.333 18.5448 76.3326 18.5448C76.332 18.5448 76.3313 18.5448 76.3307 18.5448C76.3294 18.5448 76.3282 18.5447 76.3269 18.5447C76.3245 18.5447 76.3222 18.5446 76.32 18.5446C76.3156 18.5444 76.3116 18.5443 76.308 18.5441C76.3009 18.5437 76.2948 18.5432 76.2901 18.5427C76.2809 18.5419 76.2745 18.541 76.2722 18.5406C76.2678 18.54 76.2717 18.5404 76.2893 18.5441C76.3244 18.5513 76.3992 18.5682 76.5441 18.6056L76.7937 17.6372C76.6414 17.598 76.5491 17.5766 76.4913 17.5647C76.4625 17.5587 76.4386 17.5544 76.4179 17.5513C76.4074 17.5498 76.3958 17.5483 76.3835 17.5471C76.3772 17.5465 76.37 17.546 76.3622 17.5455C76.3583 17.5453 76.354 17.5451 76.3495 17.545C76.3472 17.5449 76.3448 17.5449 76.3423 17.5448C76.3411 17.5448 76.3398 17.5448 76.3386 17.5448C76.3379 17.5448 76.3373 17.5448 76.3366 17.5448C76.3363 17.5448 76.3358 17.5448 76.3356 17.5448C76.3351 17.5448 76.3346 17.5448 76.3346 18.0448ZM76.0986 18.5039C76.0974 18.5038 76.1029 18.5044 76.1162 18.5069C76.1284 18.5092 76.1422 18.5122 76.1562 18.5155C76.17 18.5187 76.1823 18.5217 76.191 18.524C76.1953 18.5251 76.1985 18.5259 76.2004 18.5265C76.2014 18.5267 76.202 18.5269 76.2023 18.527C76.2024 18.527 76.2025 18.527 76.2024 18.527C76.2024 18.527 76.2023 18.527 76.2022 18.5269C76.2022 18.5269 76.2021 18.5269 76.2021 18.5269C76.202 18.5269 76.202 18.5269 76.202 18.5269C76.202 18.5269 76.202 18.5269 76.2019 18.5269C76.2019 18.5269 76.2019 18.5268 76.3346 18.0448C76.4673 17.5627 76.4673 17.5627 76.4673 17.5627C76.4673 17.5627 76.4672 17.5627 76.4672 17.5627C76.4672 17.5627 76.4671 17.5627 76.4671 17.5627C76.467 17.5626 76.4669 17.5626 76.4668 17.5626C76.4666 17.5625 76.4664 17.5625 76.4662 17.5624C76.4657 17.5623 76.4651 17.5621 76.4644 17.5619C76.463 17.5615 76.4611 17.561 76.4589 17.5604C76.4544 17.5592 76.4483 17.5576 76.4409 17.5557C76.4263 17.5519 76.4059 17.5468 76.3825 17.5414C76.3415 17.5319 76.2693 17.5161 76.1992 17.509L76.0986 18.5039ZM75.9632 18.0065C75.9953 18.5054 75.9952 18.5055 75.9952 18.5055C75.9952 18.5055 75.9952 18.5055 75.9952 18.5055C75.9951 18.5055 75.9951 18.5055 75.9951 18.5055C75.995 18.5055 75.995 18.5055 75.9949 18.5055C75.9949 18.5055 75.9948 18.5055 75.9948 18.5055C75.9947 18.5055 75.9947 18.5055 75.9949 18.5055C75.9951 18.5055 75.9957 18.5054 75.9967 18.5054C75.9987 18.5053 76.0019 18.5051 76.0062 18.5049C76.015 18.5044 76.0273 18.5039 76.0412 18.5036C76.0552 18.5032 76.0691 18.5031 76.0812 18.5033C76.0945 18.5035 76.0998 18.5041 76.0986 18.5039L76.1992 17.509C76.1304 17.5021 76.058 17.5029 76.0168 17.5039C75.9932 17.5045 75.9727 17.5053 75.9579 17.506C75.9504 17.5064 75.9442 17.5067 75.9397 17.507C75.9374 17.5071 75.9356 17.5072 75.9341 17.5073C75.9334 17.5074 75.9328 17.5074 75.9323 17.5074C75.932 17.5075 75.9318 17.5075 75.9316 17.5075C75.9315 17.5075 75.9314 17.5075 75.9313 17.5075C75.9313 17.5075 75.9313 17.5075 75.9312 17.5075C75.9312 17.5075 75.9312 17.5075 75.9312 17.5075C75.9311 17.5075 75.9311 17.5075 75.9632 18.0065ZM76.4632 39.9551V18.0065H75.4632V39.9551H76.4632ZM83.108 38.5778L75.9025 39.4588L76.0239 40.4514L83.2294 39.5704L83.108 38.5778ZM88.7353 35.0109L82.904 38.6499L83.4334 39.4982L89.2647 35.8593L88.7353 35.0109ZM88.3686 34.1328C88.0096 34.4808 88.0095 34.4807 88.0094 34.4805C88.0093 34.4805 88.0092 34.4803 88.0091 34.4802C88.0089 34.4801 88.0087 34.4799 88.0086 34.4797C88.0082 34.4793 88.0079 34.479 88.0076 34.4787C88.007 34.4781 88.0065 34.4776 88.0061 34.4771C88.0053 34.4762 88.0048 34.4757 88.0046 34.4756C88.0044 34.4753 88.0054 34.4764 88.0077 34.479C88.0122 34.4842 88.0217 34.4954 88.0352 34.5129C88.0621 34.5477 88.1052 34.6076 88.1571 34.6949C88.2608 34.8691 88.4011 35.1546 88.5189 35.5712L89.4811 35.299C89.339 34.7964 89.1635 34.4307 89.0165 34.1835C88.9431 34.0601 88.877 33.9668 88.8262 33.9011C88.8008 33.8682 88.7792 33.8423 88.7624 33.823C88.7541 33.8134 88.7469 33.8054 88.741 33.799C88.7381 33.7958 88.7355 33.793 88.7333 33.7906C88.7321 33.7895 88.7311 33.7884 88.7301 33.7874C88.7297 33.7869 88.7292 33.7864 88.7288 33.786C88.7286 33.7857 88.7284 33.7855 88.7282 33.7853C88.7281 33.7852 88.7279 33.785 88.7279 33.785C88.7277 33.7848 88.7276 33.7847 88.3686 34.1328ZM87.0985 33.425L87.9899 34.4592L88.7473 33.8063L87.8559 32.7721L87.0985 33.425ZM86.2935 32.5575L87.1106 33.4385L87.8438 32.7585L87.0267 31.8775L86.2935 32.5575ZM84.5926 30.8036L86.3011 32.5656L87.019 31.8695L85.3105 30.1074L84.5926 30.8036ZM83.1202 29.0535L84.5688 30.7772L85.3343 30.1338L83.8858 28.4101L83.1202 29.0535ZM81.7742 27.3571L83.1113 29.0425L83.8947 28.421L82.5576 26.7356L81.7742 27.3571ZM80.4045 25.1658L81.7416 27.3109L82.5902 26.7819L81.2531 24.6368L80.4045 25.1658ZM79.1865 22.545L80.3751 25.1114L81.2825 24.6912L80.094 22.1248L79.1865 22.545Z" fill="#EAB354"/>
<path d="M58.8985 0.111717C58.5719 0.274998 57.6094 1.52109 57.1024 2.44062C55.9336 4.55468 55.5813 6.56562 55.968 8.86875C56.2688 10.5789 56.7414 11.8508 57.575 13.1312L58.0477 13.8617L57.5836 14.7727C56.4578 16.9555 55.4953 19.7227 55.2117 21.6133C54.8594 23.9766 55.0914 26.5719 55.8735 28.918C56.2774 30.1469 57.2828 32.1492 58.0133 33.1633C59.0617 34.6242 60.6086 36.1195 62.0953 37.0992C62.6367 37.4602 62.6625 37.4945 62.5852 37.718C62.3531 38.3797 60.8321 41.293 60.4367 41.843C59.7492 42.7797 59.6719 42.9086 59.6719 43.1148C59.6719 43.5961 60.0844 44 60.5656 44C61.2188 44 62.6797 41.8 63.8828 39.0156C64.0375 38.6633 64.1664 38.3625 64.1836 38.3453C64.1922 38.3367 64.4758 38.4398 64.8196 38.5859C66.3836 39.2219 69.0992 39.9867 70.9727 40.3047C74.8313 40.9492 78.8016 40.8461 82.5399 40.0039C84.1039 39.6516 86.261 38.9727 87.6875 38.3797C87.7906 38.3367 87.8852 38.4656 88.0656 38.9039C89.2516 41.6883 90.7813 44 91.4344 44C91.9156 44 92.3281 43.5961 92.3281 43.1148C92.3281 42.9086 92.2508 42.7797 91.5633 41.843C91.168 41.293 89.6469 38.3797 89.4149 37.7094C89.3375 37.5031 89.3633 37.4602 89.6383 37.2969C90.6438 36.7039 92.3883 35.157 93.2735 34.0742C94.9149 32.0633 96.118 29.5539 96.6164 27.0961C96.9774 25.3172 97.0375 23.332 96.7883 21.6133C96.5047 19.7227 95.4906 16.8094 94.3821 14.6953L93.9524 13.8875L94.1328 13.6641C94.4508 13.2687 95.0781 12.1687 95.336 11.5586C96.2297 9.39296 96.4961 6.95234 96.0235 5.11328C95.5852 3.41171 94.6828 1.69296 93.5485 0.429684C93.2133 0.0515587 93.1961 0.0429657 92.7063 0.0515594C92.0961 0.0687469 91.2883 0.343747 89.8703 1.03984C88.2289 1.83906 86.2094 3.26563 84.3102 4.9586L83.6399 5.56015L83.1071 5.44844C81.9813 5.20781 80.0906 5.13906 75.1235 5.17344C70.8094 5.20781 70.0875 5.23359 69.2711 5.37109L68.343 5.53437L67.9391 5.13906C66.7961 4.04765 64.6649 2.41484 63.4188 1.67578C62.3961 1.07422 60.8836 0.395309 60.0844 0.171871C59.3625 -0.0257851 59.1906 -0.0343765 58.8985 0.111717ZM59.9899 3.09375C60.875 4.125 61.5625 5.16484 62.1211 6.31641C62.7141 7.55391 62.9117 8.15547 62.7571 8.25859C62.1727 8.61953 60.325 10.5359 59.5688 11.5758C59.3196 11.9195 59.0789 12.1859 59.0274 12.1687C58.8727 12.1258 58.2969 10.9484 58.0391 10.1406C57.2914 7.78593 57.3688 5.86953 58.2883 3.90156C58.6406 3.1625 59.1563 2.32031 59.2594 2.32031C59.2938 2.32031 59.6203 2.67266 59.9899 3.09375ZM93.3078 3.00781C94.0641 4.24531 94.5539 5.85234 94.5625 7.08984C94.5625 7.78594 94.3477 9.08359 94.0813 9.96875C93.8492 10.725 93.2563 12.0398 93.0672 12.1945C92.9899 12.2633 92.8266 12.1 92.4399 11.5758C91.761 10.6648 90.8672 9.68515 89.9563 8.86875C89.561 8.50781 89.2344 8.16406 89.2344 8.1039C89.2344 7.63984 90.3688 5.37109 91.1508 4.27109C91.7094 3.49765 92.7235 2.32031 92.8352 2.32031C92.8696 2.32031 93.0844 2.62968 93.3078 3.00781ZM62.7227 3.26562C63.7024 3.86718 64.7852 4.675 65.9281 5.65469L66.4696 6.11875L65.825 6.40234C65.4727 6.55703 65.0086 6.78047 64.7938 6.90937C64.5875 7.02969 64.3899 7.13281 64.3727 7.13281C64.3555 7.13281 64.2696 6.95234 64.1836 6.72031C63.9086 5.99844 63.1438 4.5289 62.6024 3.7125C62.3188 3.28281 62.0953 2.92187 62.1211 2.92187C62.1469 2.92187 62.4133 3.07656 62.7227 3.26562ZM89.7156 3.33437C89.1742 4.08203 88.4781 5.32812 88.1086 6.21328C87.9024 6.69453 87.7305 7.10703 87.7219 7.11562C87.6961 7.15859 85.6336 6.15312 85.6336 6.10156C85.6336 6.03281 87.3867 4.61484 88.1172 4.09063C88.8133 3.59219 89.836 2.93906 89.9391 2.93047C89.9821 2.92188 89.8789 3.10234 89.7156 3.33437ZM82.6172 7.08125C85.1524 7.5625 87.2836 8.6539 89.1313 10.4328C90.1969 11.4641 90.8414 12.2289 91.675 13.475C93.1789 15.7352 94.6313 19.2156 95.0352 21.5531C95.9891 27.0016 93.5313 32.6477 88.8735 35.7242C86.5617 37.2539 82.9438 38.3969 78.9649 38.8523C77.7446 38.9984 74.2555 38.9984 73.0352 38.8523C69.0735 38.3969 65.4297 37.2453 63.1266 35.7242C58.4688 32.6477 56.011 27.0016 56.9649 21.5531C57.4805 18.5625 59.4141 14.4203 61.4594 11.9281C62.1641 11.0602 63.6336 9.67656 64.4156 9.13515C66.2117 7.88906 68.4289 7.10703 70.6719 6.92656C70.8867 6.90938 73.4735 6.90937 76.4297 6.91796C81.1735 6.92656 81.8953 6.94375 82.6172 7.08125Z" fill="#5F787B"/>
<path d="M64.6563 18.4594C63.8313 18.6914 63.2469 19.0438 62.6797 19.6453C61.2961 21.132 61.4594 23.2289 63.0836 24.75C64.0203 25.6352 65.2922 26.125 66.6328 26.125C68.386 26.125 69.8899 25.2828 70.5516 23.9336C70.775 23.4609 70.8008 23.3406 70.8008 22.5156C70.8008 21.682 70.7836 21.5703 70.5344 21.0547C69.9758 19.8859 69.0133 19.0352 67.75 18.5883C66.8821 18.2875 65.4899 18.2273 64.6563 18.4594ZM66.461 20.0836C66.461 20.1266 66.4008 20.6508 66.3321 21.2609C66.2289 22.1977 66.2289 22.4039 66.3321 22.6445C66.4696 22.9883 66.6844 23.1172 67.1055 23.1172C67.5867 23.1172 67.8875 22.7648 67.9649 22.1203C67.9906 21.8453 68.0422 21.3984 68.0766 21.1406L68.1367 20.6766L68.4977 21.0547C68.9789 21.5445 69.1594 22.0258 69.1078 22.6445C68.9446 24.6383 65.593 25.0766 64.0461 23.3063C63.2383 22.3867 63.2727 21.3383 64.1492 20.5992C64.3555 20.4188 64.6992 20.2211 64.9141 20.1523C65.3266 20.032 66.461 19.9805 66.461 20.0836Z" fill="#5F787B"/>
<path d="M84.7656 18.4336C83.2445 18.8031 82.0758 19.7484 81.4399 21.0977C81.225 21.5617 81.1992 21.7078 81.1992 22.5156C81.1992 23.3406 81.225 23.4609 81.4485 23.9336C82.1102 25.2828 83.6141 26.125 85.3672 26.125C86.7164 26.125 87.9625 25.6438 88.8992 24.7672C89.561 24.1484 89.9563 23.5211 90.1453 22.7734C90.6352 20.8656 89.3461 18.932 87.2492 18.4336C86.5789 18.2789 85.4102 18.2789 84.7656 18.4336ZM87.0516 20.1523C88.2031 20.4961 88.8305 21.6648 88.3836 22.6531C87.868 23.7875 86.6219 24.4578 85.161 24.3891C83.8461 24.3375 82.9781 23.6672 82.8922 22.6445C82.8406 22.0258 83.0211 21.5445 83.5024 21.0547L83.8633 20.6766L83.9235 21.1406C83.9578 21.3984 84.0094 21.8453 84.0352 22.1203C84.1125 22.7648 84.4133 23.1172 84.8945 23.1172C85.3156 23.1172 85.5305 22.9883 85.668 22.6445C85.7711 22.4039 85.7711 22.1977 85.668 21.2609C85.5992 20.6508 85.5391 20.1266 85.5391 20.0836C85.5391 19.9719 86.6133 20.0148 87.0516 20.1523Z" fill="#5F787B"/>
<path d="M74.0149 26.4859C73.5852 26.5633 73.1211 26.907 72.8891 27.3281C72.7516 27.5774 72.7258 27.7664 72.7516 28.4024C72.7774 29.0813 72.8117 29.2531 73.061 29.7516C73.3875 30.4219 74.0836 31.1094 74.668 31.3242C75.1149 31.5047 75.1321 31.582 74.8485 32.2008C74.5649 32.8109 74.0407 33.3524 73.4477 33.6531C73.0008 33.8766 72.8633 33.9024 72.1328 33.9024C71.368 33.9024 71.2821 33.8852 70.775 33.6102C69.8125 33.0859 69.2539 32.2438 69.1508 31.1438C69.0821 30.4133 68.8157 30.0781 68.3086 30.0781C67.6383 30.0781 67.3547 30.4906 67.4407 31.3414C67.5696 32.5789 68.0852 33.6188 68.9961 34.4438C70.8438 36.1281 73.6883 36.0594 75.4414 34.2891L75.9485 33.7734L76.55 34.3664C78.0883 35.8531 80.1594 36.1711 82.05 35.2172C82.686 34.8992 83.6828 33.9195 84.018 33.2836C84.2844 32.7938 84.5938 31.668 84.5938 31.2211C84.5938 30.8688 84.3961 30.4563 84.1727 30.3359C83.8461 30.1641 83.3907 30.2328 83.1414 30.4906C82.9524 30.6797 82.8922 30.8344 82.8492 31.2727C82.7375 32.3469 82.1703 33.1805 81.225 33.6961C80.718 33.9711 80.6321 33.9883 79.8672 33.9883C79.1367 33.9883 78.9992 33.9625 78.5524 33.7391C77.9594 33.4383 77.4352 32.8969 77.1516 32.2867C76.8508 31.6336 76.8766 31.5047 77.3321 31.3242C77.9164 31.1094 78.6125 30.4219 78.9391 29.7516C79.1883 29.2531 79.2227 29.0727 79.2485 28.4024C79.2742 27.6719 79.2657 27.6117 79.025 27.2336C78.5867 26.5547 78.3375 26.4859 76.1977 26.4516C75.1922 26.4344 74.2125 26.4516 74.0149 26.4859ZM77.5297 28.5742C77.4438 29.3391 76.825 29.8547 76 29.8547C75.175 29.8547 74.5563 29.3391 74.4703 28.5742L74.4274 28.1875H76H77.5727L77.5297 28.5742Z" fill="#5F787B"/>
<rect y="42" width="152" height="19" rx="9.5" fill="#5F787B"/>
<path d="M31.612 56L27.94 47.6H29.632L32.908 55.196H31.936L35.248 47.6H36.808L33.148 56H31.612ZM37.6944 56V47.6H39.2544V56H37.6944ZM42.9664 51.092H47.1424V52.376H42.9664V51.092ZM43.0864 54.692H47.8264V56H41.5264V47.6H47.6584V48.908H43.0864V54.692ZM51.4283 56L48.6443 47.6H50.2643L52.7483 55.196H51.9443L54.5243 47.6H55.9643L58.4723 55.196H57.6923L60.2363 47.6H61.7243L58.9403 56H57.2843L54.9923 49.148H55.4243L53.0963 56H51.4283ZM62.9952 56V47.6H64.5552V56H62.9952ZM66.8272 56V47.6H68.1112L73.3792 54.068H72.7432V47.6H74.2912V56H73.0072L67.7392 49.532H68.3752V56H66.8272ZM80.4661 56.12C79.8101 56.12 79.2061 56.016 78.6541 55.808C78.1101 55.592 77.6341 55.292 77.2261 54.908C76.8181 54.516 76.5021 54.056 76.2781 53.528C76.0541 53 75.9421 52.424 75.9421 51.8C75.9421 51.176 76.0541 50.6 76.2781 50.072C76.5021 49.544 76.8181 49.088 77.2261 48.704C77.6421 48.312 78.1261 48.012 78.6781 47.804C79.2301 47.588 79.8341 47.48 80.4901 47.48C81.2021 47.48 81.8421 47.596 82.4101 47.828C82.9861 48.06 83.4701 48.4 83.8621 48.848L82.8781 49.808C82.5501 49.48 82.1941 49.24 81.8101 49.088C81.4341 48.928 81.0181 48.848 80.5621 48.848C80.1221 48.848 79.7141 48.92 79.3381 49.064C78.9621 49.208 78.6381 49.412 78.3661 49.676C78.0941 49.94 77.8821 50.252 77.7301 50.612C77.5861 50.972 77.5141 51.368 77.5141 51.8C77.5141 52.224 77.5861 52.616 77.7301 52.976C77.8821 53.336 78.0941 53.652 78.3661 53.924C78.6381 54.188 78.9581 54.392 79.3261 54.536C79.6941 54.68 80.1021 54.752 80.5501 54.752C80.9661 54.752 81.3661 54.688 81.7501 54.56C82.1421 54.424 82.5141 54.2 82.8661 53.888L83.7541 55.052C83.3141 55.404 82.8021 55.672 82.2181 55.856C81.6421 56.032 81.0581 56.12 80.4661 56.12ZM82.2781 54.848V51.704H83.7541V55.052L82.2781 54.848ZM93.016 56.12C92.376 56.12 91.78 56.016 91.228 55.808C90.684 55.592 90.208 55.292 89.8 54.908C89.4 54.516 89.088 54.056 88.864 53.528C88.64 53 88.528 52.424 88.528 51.8C88.528 51.176 88.64 50.6 88.864 50.072C89.088 49.544 89.404 49.088 89.812 48.704C90.22 48.312 90.696 48.012 91.24 47.804C91.784 47.588 92.38 47.48 93.028 47.48C93.716 47.48 94.344 47.6 94.912 47.84C95.48 48.072 95.96 48.42 96.352 48.884L95.344 49.832C95.04 49.504 94.7 49.26 94.324 49.1C93.948 48.932 93.54 48.848 93.1 48.848C92.66 48.848 92.256 48.92 91.888 49.064C91.528 49.208 91.212 49.412 90.94 49.676C90.676 49.94 90.468 50.252 90.316 50.612C90.172 50.972 90.1 51.368 90.1 51.8C90.1 52.232 90.172 52.628 90.316 52.988C90.468 53.348 90.676 53.66 90.94 53.924C91.212 54.188 91.528 54.392 91.888 54.536C92.256 54.68 92.66 54.752 93.1 54.752C93.54 54.752 93.948 54.672 94.324 54.512C94.7 54.344 95.04 54.092 95.344 53.756L96.352 54.716C95.96 55.172 95.48 55.52 94.912 55.76C94.344 56 93.712 56.12 93.016 56.12ZM96.483 56L100.263 47.6H101.799L105.591 56H103.959L100.707 48.428H101.331L98.091 56H96.483ZM98.223 54.056L98.643 52.832H103.179L103.599 54.056H98.223ZM107.941 56V48.92H105.157V47.6H112.285V48.92H109.501V56H107.941ZM115.978 56.12C115.322 56.12 114.694 56.028 114.094 55.844C113.494 55.652 113.018 55.408 112.666 55.112L113.206 53.9C113.542 54.164 113.958 54.384 114.454 54.56C114.95 54.736 115.458 54.824 115.978 54.824C116.418 54.824 116.774 54.776 117.046 54.68C117.318 54.584 117.518 54.456 117.646 54.296C117.774 54.128 117.838 53.94 117.838 53.732C117.838 53.476 117.746 53.272 117.562 53.12C117.378 52.96 117.138 52.836 116.842 52.748C116.554 52.652 116.23 52.564 115.87 52.484C115.518 52.404 115.162 52.312 114.802 52.208C114.45 52.096 114.126 51.956 113.83 51.788C113.542 51.612 113.306 51.38 113.122 51.092C112.938 50.804 112.846 50.436 112.846 49.988C112.846 49.532 112.966 49.116 113.206 48.74C113.454 48.356 113.826 48.052 114.322 47.828C114.826 47.596 115.462 47.48 116.23 47.48C116.734 47.48 117.234 47.544 117.73 47.672C118.226 47.8 118.658 47.984 119.026 48.224L118.534 49.436C118.158 49.212 117.77 49.048 117.37 48.944C116.97 48.832 116.586 48.776 116.218 48.776C115.786 48.776 115.434 48.828 115.162 48.932C114.898 49.036 114.702 49.172 114.574 49.34C114.454 49.508 114.394 49.7 114.394 49.916C114.394 50.172 114.482 50.38 114.658 50.54C114.842 50.692 115.078 50.812 115.366 50.9C115.662 50.988 115.99 51.076 116.35 51.164C116.71 51.244 117.066 51.336 117.418 51.44C117.778 51.544 118.102 51.68 118.39 51.848C118.686 52.016 118.922 52.244 119.098 52.532C119.282 52.82 119.374 53.184 119.374 53.624C119.374 54.072 119.25 54.488 119.002 54.872C118.762 55.248 118.39 55.552 117.886 55.784C117.382 56.008 116.746 56.12 115.978 56.12Z" fill="#EAB354"/>
</svg>
